<mxfile host="app.diagrams.net" modified="2021-08-22T18:11:09.582Z" agent="5.0 (Windows NT 10.0; Win64; x64) AppleWebKit/537.36 (KHTML, like Gecko) Chrome/92.0.4515.159 Safari/537.36" etag="HQ8uSY_td0-Bkl1yBOYU" version="14.9.8" type="github">
  <diagram id="kgpKYQtTHZ0yAKxKKP6v" name="Page-1">
    <mxGraphModel dx="1422" dy="794" grid="1" gridSize="10" guides="1" tooltips="1" connect="1" arrows="1" fold="1" page="1" pageScale="1" pageWidth="850" pageHeight="1100" math="0" shadow="0">
      <root>
        <mxCell id="0" />
        <mxCell id="1" parent="0" />
        <mxCell id="mcs3syWMrZwQXlvWh0z1-1" value="Khách Hàng" style="shape=umlLifeline;perimeter=lifelinePerimeter;container=1;collapsible=0;recursiveResize=0;rounded=0;shadow=0;strokeWidth=1;" vertex="1" parent="1">
          <mxGeometry x="140" y="100" width="100" height="400" as="geometry" />
        </mxCell>
        <mxCell id="mcs3syWMrZwQXlvWh0z1-2" value="" style="points=[];perimeter=orthogonalPerimeter;rounded=0;shadow=0;strokeWidth=1;" vertex="1" parent="mcs3syWMrZwQXlvWh0z1-1">
          <mxGeometry x="45" y="80" width="10" height="40" as="geometry" />
        </mxCell>
        <mxCell id="mcs3syWMrZwQXlvWh0z1-3" value="Thiết bị/Giao diện" style="shape=umlLifeline;perimeter=lifelinePerimeter;container=1;collapsible=0;recursiveResize=0;rounded=0;shadow=0;strokeWidth=1;" vertex="1" parent="1">
          <mxGeometry x="320" y="100" width="100" height="400" as="geometry" />
        </mxCell>
        <mxCell id="mcs3syWMrZwQXlvWh0z1-4" value="" style="points=[];perimeter=orthogonalPerimeter;rounded=0;shadow=0;strokeWidth=1;" vertex="1" parent="mcs3syWMrZwQXlvWh0z1-3">
          <mxGeometry x="45" y="120" width="10" height="40" as="geometry" />
        </mxCell>
        <mxCell id="mcs3syWMrZwQXlvWh0z1-5" value="Nhập nội dung phản hồi" style="verticalAlign=bottom;endArrow=block;shadow=0;strokeWidth=1;" edge="1" parent="1" source="mcs3syWMrZwQXlvWh0z1-2">
          <mxGeometry x="-0.0286" y="1" relative="1" as="geometry">
            <mxPoint x="295" y="180" as="sourcePoint" />
            <mxPoint x="370" y="219" as="targetPoint" />
            <Array as="points">
              <mxPoint x="300" y="220" />
            </Array>
            <mxPoint as="offset" />
          </mxGeometry>
        </mxCell>
        <mxCell id="mcs3syWMrZwQXlvWh0z1-6" value="Hệ Thống" style="shape=umlLifeline;perimeter=lifelinePerimeter;container=1;collapsible=0;recursiveResize=0;rounded=0;shadow=0;strokeWidth=1;" vertex="1" parent="1">
          <mxGeometry x="490" y="100" width="100" height="400" as="geometry" />
        </mxCell>
        <mxCell id="mcs3syWMrZwQXlvWh0z1-7" value="" style="points=[];perimeter=orthogonalPerimeter;rounded=0;shadow=0;strokeWidth=1;" vertex="1" parent="mcs3syWMrZwQXlvWh0z1-6">
          <mxGeometry x="45" y="160" width="10" height="40" as="geometry" />
        </mxCell>
        <mxCell id="mcs3syWMrZwQXlvWh0z1-8" value="Yêu cầu hệ&amp;nbsp; thống" style="html=1;verticalAlign=bottom;endArrow=block;entryX=-0.1;entryY=0;entryDx=0;entryDy=0;entryPerimeter=0;" edge="1" parent="1" target="mcs3syWMrZwQXlvWh0z1-7">
          <mxGeometry x="0.0059" width="80" relative="1" as="geometry">
            <mxPoint x="365" y="260" as="sourcePoint" />
            <mxPoint x="530" y="260" as="targetPoint" />
            <mxPoint as="offset" />
          </mxGeometry>
        </mxCell>
        <mxCell id="mcs3syWMrZwQXlvWh0z1-9" value="Yêu cầu thành công" style="html=1;verticalAlign=bottom;endArrow=block;exitX=0.5;exitY=1;exitDx=0;exitDy=0;exitPerimeter=0;" edge="1" parent="1" source="mcs3syWMrZwQXlvWh0z1-7">
          <mxGeometry x="0.0588" width="80" relative="1" as="geometry">
            <mxPoint x="455" y="300" as="sourcePoint" />
            <mxPoint x="370" y="300" as="targetPoint" />
            <mxPoint as="offset" />
          </mxGeometry>
        </mxCell>
        <mxCell id="mcs3syWMrZwQXlvWh0z1-10" value="Hiển thị phản hồi thành công&lt;br&gt;và reload lại trang" style="html=1;verticalAlign=bottom;endArrow=block;exitX=0.5;exitY=1;exitDx=0;exitDy=0;exitPerimeter=0;" edge="1" parent="1" source="mcs3syWMrZwQXlvWh0z1-11">
          <mxGeometry width="80" relative="1" as="geometry">
            <mxPoint x="360" y="340" as="sourcePoint" />
            <mxPoint x="190" y="340" as="targetPoint" />
            <mxPoint as="offset" />
          </mxGeometry>
        </mxCell>
        <mxCell id="mcs3syWMrZwQXlvWh0z1-11" value="" style="points=[];perimeter=orthogonalPerimeter;rounded=0;shadow=0;strokeWidth=1;" vertex="1" parent="1">
          <mxGeometry x="365" y="300" width="10" height="40" as="geometry" />
        </mxCell>
        <mxCell id="mcs3syWMrZwQXlvWh0z1-12" value="" style="html=1;points=[];perimeter=orthogonalPerimeter;" vertex="1" parent="1">
          <mxGeometry x="535" y="380" width="10" height="40" as="geometry" />
        </mxCell>
        <mxCell id="mcs3syWMrZwQXlvWh0z1-13" value="" style="edgeStyle=orthogonalEdgeStyle;html=1;align=left;spacingLeft=2;endArrow=block;rounded=0;entryX=1;entryY=0;" edge="1" parent="1" target="mcs3syWMrZwQXlvWh0z1-12">
          <mxGeometry y="85" relative="1" as="geometry">
            <mxPoint x="545" y="300" as="sourcePoint" />
            <Array as="points">
              <mxPoint x="575" y="300" />
              <mxPoint x="575" y="380" />
            </Array>
            <mxPoint as="offset" />
          </mxGeometry>
        </mxCell>
        <mxCell id="mcs3syWMrZwQXlvWh0z1-14" value="Yêu cầu thất bại" style="html=1;verticalAlign=bottom;endArrow=block;exitX=0.5;exitY=1;exitDx=0;exitDy=0;exitPerimeter=0;" edge="1" parent="1">
          <mxGeometry width="80" relative="1" as="geometry">
            <mxPoint x="545" y="420" as="sourcePoint" />
            <mxPoint x="375" y="420" as="targetPoint" />
            <mxPoint as="offset" />
          </mxGeometry>
        </mxCell>
        <mxCell id="mcs3syWMrZwQXlvWh0z1-15" value="" style="points=[];perimeter=orthogonalPerimeter;rounded=0;shadow=0;strokeWidth=1;" vertex="1" parent="1">
          <mxGeometry x="365" y="420" width="10" height="40" as="geometry" />
        </mxCell>
        <mxCell id="mcs3syWMrZwQXlvWh0z1-16" value="Hiển thị gửi thất bại&lt;br&gt;và reload lại trang" style="html=1;verticalAlign=bottom;endArrow=block;exitX=0.5;exitY=1;exitDx=0;exitDy=0;exitPerimeter=0;" edge="1" parent="1" target="mcs3syWMrZwQXlvWh0z1-1">
          <mxGeometry width="80" relative="1" as="geometry">
            <mxPoint x="365" y="459" as="sourcePoint" />
            <mxPoint x="195" y="459" as="targetPoint" />
            <mxPoint as="offset" />
          </mxGeometry>
        </mxCell>
        <mxCell id="mcs3syWMrZwQXlvWh0z1-17" value="Phản hồi của khách hàng về công ty" style="text;align=center;fontStyle=1;verticalAlign=middle;spacingLeft=3;spacingRight=3;strokeColor=none;rotatable=0;points=[[0,0.5],[1,0.5]];portConstraint=eastwest;" vertex="1" parent="1">
          <mxGeometry x="330" y="70" width="80" height="26" as="geometry" />
        </mxCell>
        <mxCell id="mcs3syWMrZwQXlvWh0z1-18" value="Đăng nhập thành công" style="html=1;verticalAlign=bottom;endArrow=block;" edge="1" parent="1" source="mcs3syWMrZwQXlvWh0z1-3">
          <mxGeometry x="0.0286" width="80" relative="1" as="geometry">
            <mxPoint x="365" y="160" as="sourcePoint" />
            <mxPoint x="190" y="160" as="targetPoint" />
            <mxPoint as="offset" />
          </mxGeometry>
        </mxCell>
      </root>
    </mxGraphModel>
  </diagram>
</mxfile>
